<?xml version="1.0" encoding="utf-8"?>
<svg viewBox="0 0 1319.1961 801" xmlns="http://www.w3.org/2000/svg">
  <defs>
    <linearGradient x1="-45.25%" y1="-88.077%" x2="97.789%" y2="100%" id="a">
      <stop stop-color="#FF52C1" offset="0"/>
      <stop stop-color="#F952C5" offset="0.0409"/>
      <stop stop-color="#9952FF" stop-opacity="0" offset="1"/>
    </linearGradient>
    <linearGradient x1="-64.06%" y1="-121.906%" x2="97.789%" y2="100%" id="b">
      <stop stop-color="#FF52C1" offset="0"/>
      <stop stop-color="#F952C5" offset="0.0409"/>
      <stop stop-color="#9952FF" stop-opacity="0" offset="1"/>
    </linearGradient>
    <linearGradient x1="21.681%" y1="5.006%" x2="145.861%" y2="145.591%" id="d">
      <stop stop-color="#FF52C1" offset="0"/>
      <stop stop-color="#9952FF" offset="1"/>
    </linearGradient>
    <linearGradient x1="6.375%" y1="-15.195%" x2="91.754%" y2="105.701%" id="e">
      <stop stop-color="#FF52C1" offset="0"/>
      <stop stop-color="#9952FF" offset="1"/>
    </linearGradient>
  </defs>
  <path fill="url(#a)" transform="matrix(-1, 0, 0, 1, 834.8170166015625, 0)" d="M0 0h409.224l425.593 376v156.83z"/>
  <path fill="url(#b)" transform="matrix(-1, 0, 0, -1, 1057.300048828125, 1168.0000000000002)" d="M0 367l641.153.138L1057.3 673.299V801z"/>
  <rect fill="url(#d)" opacity=".558" transform="matrix(0.7071067811865477, 0.7071067811865477, -0.7071067811865477, 0.7071067811865477, 825.7343894237551, -575.7591716303214)" x="1088.87" y="689.87" width="38" height="38" rx="3"/>
  <rect fill="url(#d)" opacity=".503" transform="matrix(0.7071067811865477, 0.7071067811865477, -0.7071067811865477, 0.7071067811865477, 448.0404316011678, -874.4692873175266)" x="1251.598" y="75.598" width="56" height="56" rx="3"/>
  <rect fill="url(#d)" opacity=".558" transform="matrix(0.7071067811865477, 0.7071067811865477, -0.7071067811865477, 0.7071067811865477, 318.7369969570801, -642.2451830811206)" x="918.627" y="47.627" width="32" height="32" rx="3"/>
  <rect fill="url(#d)" opacity=".558" transform="matrix(0.7071067811865477, 0.7071067811865477, -0.7071067811865477, 0.7071067811865477, 338.0527974971179, -442.87765071297326)" x="687.627" y="170.627" width="32" height="32" rx="3"/>
  <rect fill="url(#d)" opacity=".387" transform="matrix(0.7071067811865477, 0.7071067811865477, -0.7071067811865477, 0.7071067811865477, 790.8356406025387, -697.2060900881634)" x="1228.521" y="597.521" width="17" height="17" rx="1"/>
  <path d="M91.477 739.477v-16.5a5 5 0 0 1 10 0v16.5h16.5a5 5 0 0 1 0 10h-16.5v16.5a5 5 0 1 1-10 0v-16.5h-16.5a5 5 0 1 1 0-10h16.5z" fill="url(#e)" opacity=".211" transform="matrix(0.7071067811865477, 0.7071067811865477, -0.7071067811865477, 0.7071067811865477, 554.6821861895746, 149.83272278655852)"/>
</svg>